<?xml version="1.0" encoding="utf-8"?>
<!-- Generator: Adobe Illustrator 18.0.0, SVG Export Plug-In . SVG Version: 6.00 Build 0)  -->
<!DOCTYPE svg PUBLIC "-//W3C//DTD SVG 1.1//EN" "http://www.w3.org/Graphics/SVG/1.1/DTD/svg11.dtd">
<svg version="1.1" id="Layer_1" xmlns="http://www.w3.org/2000/svg" xmlns:xlink="http://www.w3.org/1999/xlink" x="0px" y="0px"
	 width="48px" height="48px" viewBox="0 0 48 48" enable-background="new 0 0 48 48" xml:space="preserve">
<path fill="#64A8D1" d="M31.3,22.3h-5.4v-5.4c0-0.9-0.7-1.5-1.5-1.5s-1.5,0.7-1.5,1.5v5.4h-5.4c-0.9,0-1.5,0.7-1.5,1.5
	c0,0.4,0.2,0.8,0.5,1.1c0.3,0.3,0.7,0.5,1.1,0.5h5.4v5.4c0,0.4,0.2,0.8,0.4,1.1c0.3,0.3,0.7,0.5,1.1,0.5c0.9,0,1.5-0.7,1.5-1.5v-5.4
	h5.4c0.9,0,1.5-0.7,1.5-1.6C32.9,23,32.2,22.3,31.3,22.3z"/>
</svg>
