<?xml version="1.0" encoding="utf-8"?>
<!-- Generator: Adobe Illustrator 18.0.0, SVG Export Plug-In . SVG Version: 6.00 Build 0)  -->
<!DOCTYPE svg PUBLIC "-//W3C//DTD SVG 1.1//EN" "http://www.w3.org/Graphics/SVG/1.1/DTD/svg11.dtd">
<svg version="1.1" id="Capa_1" xmlns="http://www.w3.org/2000/svg" xmlns:xlink="http://www.w3.org/1999/xlink" x="0px" y="0px"
	 width="64px" height="64px" viewBox="0 0 64 64" enable-background="new 0 0 64 64" xml:space="preserve">
<g>
	<path fill="#03436A" d="M41.4,32.4c-0.1-0.7-0.1-1.8,0.5-2.2c0,0,0,0,0,0c0.5-0.2,0.9-0.4,0.6-0.7l-7.4-2.2l-12,1.7
		c0,0-1.4,0.2-1.3,2.3c0.1,1.2,0.4,1.7,0.8,2l-1,0.3c-0.3,0.3,0.1,0.5,0.6,0.7c0,0,0,0,0,0c0.6,0.4,0.6,1.5,0.5,2.2
		c-2.2,0.6-1.4,0.8-1.4,0.8l0.5,0.1c-0.3,0.3-0.7,0.9-0.6,2c0.1,2.1,1.3,2.3,1.3,2.3l7.9,2.6l11.9-2.9c0,0,0.8-0.2-1.4-0.8
		c-0.1-0.7-0.1-1.8,0.5-2.2c0,0,0,0,0,0c0.5-0.2,0.9-0.4,0.6-0.7l-0.5-0.2c0.3-0.2,0.9-0.7,0.9-2.2c0.1-1-0.2-1.5-0.5-1.9l1-0.2
		C42.8,33.2,43.6,33,41.4,32.4z"/>
	<path fill="#64A8D1" d="M31.4,32.4l2-0.4l6.7-1.4l1-0.2c-0.3,0.6-0.3,1.4-0.3,1.9c0,0.1,0,0.2,0,0.3l-1.1,0.3L31.4,35L31.4,32.4z"
		/>
	<path fill="#64A8D1" d="M22.9,34.4l1,0.2l6.5,1.3l0.6,0.1l0,0l0,0l1.7,0.3l0.1,2.6L24,36.9l-0.9-0.2c0-0.1,0-0.2,0-0.3
		C23.2,35.8,23.2,35,22.9,34.4z"/>
	<path fill="#64A8D1" d="M22.5,31.1c0-0.6,0.1-1,0.3-1.2c0.1-0.1,0.3-0.2,0.4-0.2c0.1,0,0.1,0,0.1,0l5.2,1.7l2.6,0.8L30.9,35l-7.2-2
		l-0.4-0.1c0,0,0,0,0,0C23.2,32.8,22.5,32.7,22.5,31.1z"/>
	<path fill="#64A8D1" d="M30.3,43.1L22.7,41c0,0,0,0,0,0c0,0-0.7-0.1-0.8-1.7c0-0.6,0.1-1,0.3-1.2c0.1-0.1,0.3-0.2,0.4-0.2
		c0.1,0,0.1,0,0.1,0c0,0,0,0,0,0l7.8,2.5L30.3,43.1z"/>
	<path fill="#64A8D1" d="M40.3,40.4c0,0.1,0,0.2,0,0.3l-9.6,2.4l0.1-2.6l2.1-0.4l0.3,0.1l1.1-0.4l5.2-1.1l1-0.2
		C40.2,39.1,40.2,39.9,40.3,40.4z"/>
	<path fill="#64A8D1" d="M40.8,36.9C40.8,36.9,40.8,36.9,40.8,36.9L40,37.1L33.1,39L33,36.4l2.3-0.7l5.5-1.8c0,0,0.3-0.1,0.5,0.2
		c0.2,0.2,0.3,0.6,0.3,1.2C41.5,36.8,40.8,36.9,40.8,36.9z"/>
</g>
</svg>
