<?xml version="1.0" encoding="utf-8"?>
<!-- Generator: Adobe Illustrator 18.0.0, SVG Export Plug-In . SVG Version: 6.00 Build 0)  -->
<!DOCTYPE svg PUBLIC "-//W3C//DTD SVG 1.1//EN" "http://www.w3.org/Graphics/SVG/1.1/DTD/svg11.dtd">
<svg version="1.1" id="Artwork" xmlns="http://www.w3.org/2000/svg" xmlns:xlink="http://www.w3.org/1999/xlink" x="0px" y="0px"
	 width="31px" height="30px" viewBox="0 0 31 30" enable-background="new 0 0 31 30" xml:space="preserve">
<path fill="#FF3D00" d="M17.8,14.6l5.4-5.4c0.5-0.5,0.5-1.2,0-1.7l-1.1-1.1c-0.5-0.5-1.2-0.5-1.7,0L15,11.8L9.6,6.4
	C9.2,6,8.4,6,8,6.4L6.9,7.5C6.4,8,6.4,8.7,6.9,9.2l5.4,5.4L6.9,20c-0.5,0.5-0.5,1.2,0,1.7L8,22.7c0.5,0.5,1.2,0.5,1.7,0l5.4-5.4
	l5.4,5.4c0.5,0.5,1.2,0.5,1.7,0l1.1-1.1c0.5-0.5,0.5-1.2,0-1.7L17.8,14.6z"/>
</svg>
