<?xml version="1.0" encoding="utf-8"?>
<!-- Generator: Adobe Illustrator 18.0.0, SVG Export Plug-In . SVG Version: 6.00 Build 0)  -->
<!DOCTYPE svg PUBLIC "-//W3C//DTD SVG 1.1//EN" "http://www.w3.org/Graphics/SVG/1.1/DTD/svg11.dtd">
<svg version="1.1" id="Layer_1" xmlns="http://www.w3.org/2000/svg" xmlns:xlink="http://www.w3.org/1999/xlink" x="0px" y="0px"
	 width="29.3px" height="29.3px" viewBox="0 0 29.3 29.3" enable-background="new 0 0 29.3 29.3" xml:space="preserve">
<g>
	<path fill="#64A8D1" d="M6.7,22.7c0.6,0.6,1.6,0.6,2.3,0l3.9-3.9c-0.9-0.6-1.7-1.3-2.3-2.3l-3.9,3.9C6,21.1,6,22.1,6.7,22.7z"/>
	<path fill="#64A8D1" d="M16.8,19c3.5,0,6.4-2.9,6.4-6.4s-2.9-6.4-6.4-6.4s-6.4,2.9-6.4,6.4C10.5,16.1,13.3,19,16.8,19z M12,12.6
		c0-2.6,2.1-4.8,4.8-4.8c2.6,0,4.8,2.1,4.8,4.8c0,2.6-2.1,4.8-4.8,4.8C14.2,17.4,12,15.2,12,12.6z"/>
	<path fill="#64A8D1" d="M16.8,8.9V10c1.5,0,2.7,1.2,2.7,2.7h1.1C20.5,10.5,18.9,8.9,16.8,8.9z"/>
</g>
</svg>
