<?xml version="1.0" encoding="utf-8"?>
<!-- Generator: Adobe Illustrator 18.0.0, SVG Export Plug-In . SVG Version: 6.00 Build 0)  -->
<!DOCTYPE svg PUBLIC "-//W3C//DTD SVG 1.1//EN" "http://www.w3.org/Graphics/SVG/1.1/DTD/svg11.dtd">
<svg version="1.1" id="Layer_1" xmlns="http://www.w3.org/2000/svg" xmlns:xlink="http://www.w3.org/1999/xlink" x="0px" y="0px"
	 viewBox="0 0 100 100" enable-background="new 0 0 100 100" xml:space="preserve">
<path fill="#03436A" d="M54.2,39.2H43.3c-0.7,0-1.3,0.6-1.3,1.3v19c0,0.7,0.6,1.3,1.3,1.3h13.3c0.7,0,1.3-0.6,1.3-1.3V43.3
	L54.2,39.2z"/>
<polygon fill="#3D9AD1" points="54.5,41.2 56.2,43 54.5,43 "/>
<path fill="#64A8D1" d="M56.9,59.5c0,0.1-0.1,0.2-0.2,0.2H43.3c-0.1,0-0.2-0.1-0.2-0.2v-19c0-0.1,0.1-0.2,0.2-0.2h10.1v3.2
	c0,0.3,0.3,0.6,0.6,0.6h2.9C56.9,44.1,56.9,59.5,56.9,59.5z"/>
<path fill="#03436A" d="M45.1,45.1h9.5c0.2,0,0.4,0.2,0.4,0.4s-0.2,0.4-0.4,0.4h-9.5c-0.2,0-0.4-0.2-0.4-0.4S44.9,45.1,45.1,45.1z"
	/>
<path fill="#03436A" d="M55,48.3c0,0.2-0.2,0.4-0.4,0.4h-9.5c-0.2,0-0.4-0.2-0.4-0.4s0.2-0.4,0.4-0.4h9.5C54.8,47.9,55,48.1,55,48.3
	z"/>
<path fill="#03436A" d="M55,51c0,0.2-0.2,0.4-0.4,0.4h-9.5c-0.2,0-0.4-0.2-0.4-0.4c0-0.2,0.2-0.4,0.4-0.4h9.5
	C54.8,50.6,55,50.8,55,51z"/>
<path fill="#03436A" d="M55,53.8c0,0.2-0.2,0.4-0.4,0.4h-9.5c-0.2,0-0.4-0.2-0.4-0.4s0.2-0.4,0.4-0.4h9.5C54.8,53.4,55,53.6,55,53.8
	z"/>
</svg>
