<?xml version="1.0" encoding="utf-8"?>
<!-- Generator: Adobe Illustrator 18.0.0, SVG Export Plug-In . SVG Version: 6.00 Build 0)  -->
<!DOCTYPE svg PUBLIC "-//W3C//DTD SVG 1.1//EN" "http://www.w3.org/Graphics/SVG/1.1/DTD/svg11.dtd">
<svg version="1.1" id="Layer_1" xmlns="http://www.w3.org/2000/svg" xmlns:xlink="http://www.w3.org/1999/xlink" x="0px" y="0px"
	 viewBox="41 39.9 32 32" enable-background="new 41 39.9 32 32" xml:space="preserve">
<path fill="#03436A" d="M56.7,45.4l-5.2-5.2c-0.2-0.2-0.4-0.3-0.6-0.3H42c-0.5,0-1,0.4-1,1v18.7c0,0.5,0.4,0.9,1,0.9H56
	c0.5,0,1-0.4,1-0.9V46C57,45.8,56.9,45.6,56.7,45.4z"/>
<path fill="#64A8D1" d="M55.1,58.6H42.9V41.8h5.6v5.6c0,0.5,0.4,1,1,1h5.7V58.6z"/>
<polygon fill="#3D9AD1" points="50.4,46.4 50.4,41.8 50.5,41.8 55.1,46.4 "/>
</svg>
