<?xml version="1.0" encoding="utf-8"?>
<!-- Generator: Adobe Illustrator 18.0.0, SVG Export Plug-In . SVG Version: 6.00 Build 0)  -->
<!DOCTYPE svg PUBLIC "-//W3C//DTD SVG 1.1//EN" "http://www.w3.org/Graphics/SVG/1.1/DTD/svg11.dtd">
<svg version="1.1" id="Layer_1" xmlns="http://www.w3.org/2000/svg" xmlns:xlink="http://www.w3.org/1999/xlink" x="0px" y="0px"
	 viewBox="0 0 100 100" enable-background="new 0 0 100 100" xml:space="preserve">
<path fill="#03436A" d="M56.2,58c0.5,0,1.2-0.3,1.4-0.8l4.5-8.5c0.3-0.5-0.1-0.8-0.8-0.8h-4.5v-2c0-0.7-0.6-1.3-1.3-1.3H44.4
	l-0.8-2.2C43.5,42.1,43.3,42,43,42h-4.5c-0.2,0-0.3,0.1-0.4,0.2c-0.1,0.1-0.2,0.3-0.2,0.4l0,3.2l0,10.9c0,0.7,0.6,1.3,1.3,1.3"/>
<path fill="#64A8D1" d="M55.6,47.8h-9.9c-0.5,0-0.9,0.4-1.1,0.8l-4,8.2h-1.4c-0.1,0-0.1-0.1-0.1-0.1V45.8l0-2.6h3.5l0.8,2.2
	c0.1,0.2,0.3,0.4,0.5,0.4h11.5c0.1,0,0.1,0.1,0.1,0.1V47.8z"/>
</svg>
