<?xml version="1.0" encoding="utf-8"?>
<!-- Generator: Adobe Illustrator 18.0.0, SVG Export Plug-In . SVG Version: 6.00 Build 0)  -->
<!DOCTYPE svg PUBLIC "-//W3C//DTD SVG 1.1//EN" "http://www.w3.org/Graphics/SVG/1.1/DTD/svg11.dtd">
<svg version="1.1" id="Layer_1" xmlns="http://www.w3.org/2000/svg" xmlns:xlink="http://www.w3.org/1999/xlink" x="0px" y="0px"
	 viewBox="0 0 100 100" enable-background="new 0 0 100 100" xml:space="preserve">
<path fill="#03436A" d="M65.2,11.1H26c-2.6,0-4.8,2.1-4.8,4.8v68.2c0,2.6,2.1,4.8,4.8,4.8H74c2.6,0,4.8-2.1,4.8-4.8V25.9L65.2,11.1z
	"/>
<polygon fill="#3D9AD1" points="66.3,18.3 72.2,24.7 66.3,24.7 "/>
<path fill="#64A8D1" d="M74.7,84.1c0,0.4-0.3,0.8-0.8,0.8H26c-0.4,0-0.8-0.3-0.8-0.8V15.9c0-0.4,0.3-0.8,0.8-0.8h36.3v11.6
	c0,1.1,0.9,2,2,2h10.4C74.7,28.7,74.7,84.1,74.7,84.1z"/>
<path fill="#03436A" d="M32.3,32.4h34c0.8,0,1.5,0.7,1.5,1.5s-0.7,1.5-1.5,1.5h-34c-0.8,0-1.5-0.7-1.5-1.5S31.5,32.4,32.3,32.4z"/>
<path fill="#03436A" d="M67.8,44c0,0.8-0.7,1.5-1.5,1.5h-34c-0.8,0-1.5-0.7-1.5-1.5s0.7-1.5,1.5-1.5h34C67.2,42.5,67.8,43.2,67.8,44
	z"/>
<path fill="#03436A" d="M67.8,53.8c0,0.8-0.7,1.5-1.5,1.5h-34c-0.8,0-1.5-0.7-1.5-1.5s0.7-1.5,1.5-1.5h34
	C67.2,52.3,67.8,52.9,67.8,53.8z"/>
<path fill="#03436A" d="M67.8,63.7c0,0.8-0.7,1.5-1.5,1.5h-34c-0.8,0-1.5-0.7-1.5-1.5s0.7-1.5,1.5-1.5h34
	C67.2,62.2,67.8,62.8,67.8,63.7z"/>
</svg>
